<svg width="24" height="24" viewBox="0 0 24 24" fill="none" xmlns="http://www.w3.org/2000/svg">
<rect width="24" height="24" rx="2" fill="#4285F4"/>
<path d="M6.90099 17.7554V9.98702C6.90099 9.48678 7.11204 9.27813 7.26308 9.15239L11.6682 5.62131C11.8613 5.46723 12.0805 5.55711 12.166 5.62131C12.8801 6.19913 14.7337 7.68539 16.4354 9.00794C16.7973 9.28919 17.0086 9.47073 17.0086 9.85861V13.8712C17.0086 14.4972 16.7633 14.7834 16.5862 15.0429C16.1938 15.618 15.324 16.1664 14.8363 16.343L16.9634 20.5L19 20.5L17.2048 16.985C18.3634 16.343 18.8039 14.8235 18.8793 14.1441V9.85861C18.8793 8.57458 18.306 7.92186 18.0194 7.75601L13.3126 4.01628C12.0936 3.0661 10.9441 3.64177 10.5217 4.04838L5.57343 8.02887C5.10275 8.4526 4.99514 9.08285 5.00017 9.345V18.9271C5.03637 19.8644 5.93533 20.5 6.53894 20.5H14.3233L13.2824 18.4777H7.38375C6.96134 18.4263 6.88591 17.9747 6.90099 17.7554Z" fill="white"/>
<path d="M13.6596 10.1957H10.2652C9.69796 10.1957 9.55615 10.6986 9.55615 10.95V14.5453C9.55615 15.0974 10.059 15.2355 10.3105 15.2355H13.7199C14.263 15.2355 14.3686 14.7433 14.3535 14.4972V10.95C14.3535 10.3722 13.8909 10.2064 13.6596 10.1957Z" fill="white"/>
</svg>
